<mxfile host="Electron" modified="2024-08-10T21:06:27.866Z" agent="Mozilla/5.0 (X11; Linux x86_64) AppleWebKit/537.36 (KHTML, like Gecko) draw.io/24.5.3 Chrome/124.0.6367.207 Electron/30.0.6 Safari/537.36" etag="gU4TMCu3wiSNugBmPTsV" version="24.5.3" type="device" pages="3">
  <diagram name="Current Org Chart" id="hWRs4EehCeKc1sgBmJZe">
    <mxGraphModel dx="1328" dy="817" grid="1" gridSize="10" guides="1" tooltips="1" connect="1" arrows="1" fold="1" page="1" pageScale="1" pageWidth="1169" pageHeight="827" math="0" shadow="0">
      <root>
        <mxCell id="0" />
        <mxCell id="1" parent="0" />
        <mxCell id="4DdzkM8ywYrv600JBKOK-3" value="" style="edgeStyle=orthogonalEdgeStyle;rounded=0;orthogonalLoop=1;jettySize=auto;html=1;fontSize=10;" parent="1" source="4DdzkM8ywYrv600JBKOK-1" target="4DdzkM8ywYrv600JBKOK-2" edge="1">
          <mxGeometry relative="1" as="geometry" />
        </mxCell>
        <UserObject label="%name%&lt;br style=&quot;font-size: 10px;&quot;&gt;&lt;i style=&quot;color: gray; font-size: 10px;&quot;&gt;%position%&lt;/i&gt;&lt;div style=&quot;font-size: 10px;&quot;&gt;&lt;font style=&quot;font-size: 10px;&quot; color=&quot;#808080&quot;&gt;&lt;span style=&quot;font-weight: normal; font-size: 10px;&quot;&gt;%location%&lt;/span&gt;&lt;br style=&quot;font-size: 10px;&quot;&gt;&lt;/font&gt;&lt;a style=&quot;font-size: 10px;&quot; href=&quot;mailto:%email%&quot;&gt;Email&lt;/a&gt;&lt;/div&gt;" name="Michael Piko" position="Stakeholder" location="On a boat" email="mcihael@cyder.com.au" placeholders="1" id="4DdzkM8ywYrv600JBKOK-1">
          <mxCell style="label;whiteSpace=wrap;html=1;rounded=0;glass=0;treeFolding=1;treeMoving=1;spacingLeft=10;fontSize=10;" parent="1" vertex="1">
            <mxGeometry x="510" y="80" width="150" height="70" as="geometry" />
          </mxCell>
        </UserObject>
        <mxCell id="4DdzkM8ywYrv600JBKOK-6" value="" style="edgeStyle=orthogonalEdgeStyle;rounded=0;orthogonalLoop=1;jettySize=auto;html=1;exitX=0.5;exitY=1;exitDx=0;exitDy=0;fontSize=10;" parent="1" source="4DdzkM8ywYrv600JBKOK-2" target="4DdzkM8ywYrv600JBKOK-4" edge="1">
          <mxGeometry relative="1" as="geometry" />
        </mxCell>
        <mxCell id="4DdzkM8ywYrv600JBKOK-9" value="" style="edgeStyle=orthogonalEdgeStyle;rounded=0;orthogonalLoop=1;jettySize=auto;html=1;exitX=0.5;exitY=1;exitDx=0;exitDy=0;fontSize=10;" parent="1" source="4DdzkM8ywYrv600JBKOK-2" target="4DdzkM8ywYrv600JBKOK-7" edge="1">
          <mxGeometry relative="1" as="geometry" />
        </mxCell>
        <mxCell id="4DdzkM8ywYrv600JBKOK-11" value="" style="edgeStyle=orthogonalEdgeStyle;rounded=0;orthogonalLoop=1;jettySize=auto;html=1;exitX=0.5;exitY=1;exitDx=0;exitDy=0;fontSize=10;" parent="1" source="4DdzkM8ywYrv600JBKOK-2" target="4DdzkM8ywYrv600JBKOK-10" edge="1">
          <mxGeometry relative="1" as="geometry" />
        </mxCell>
        <mxCell id="4DdzkM8ywYrv600JBKOK-17" value="" style="edgeStyle=orthogonalEdgeStyle;rounded=0;orthogonalLoop=1;jettySize=auto;html=1;fontSize=10;exitX=0.5;exitY=1;exitDx=0;exitDy=0;" parent="1" source="4DdzkM8ywYrv600JBKOK-2" target="4DdzkM8ywYrv600JBKOK-16" edge="1">
          <mxGeometry relative="1" as="geometry" />
        </mxCell>
        <UserObject label="%name%&lt;br style=&quot;font-size: 10px;&quot;&gt;&lt;i style=&quot;color: gray; font-size: 10px;&quot;&gt;%position%&lt;/i&gt;&lt;div style=&quot;font-size: 10px;&quot;&gt;&lt;font style=&quot;font-size: 10px;&quot; color=&quot;#808080&quot;&gt;&lt;span style=&quot;font-weight: normal; font-size: 10px;&quot;&gt;%location%&lt;/span&gt;&lt;br style=&quot;font-size: 10px;&quot;&gt;&lt;/font&gt;&lt;a style=&quot;font-size: 10px;&quot; href=&quot;mailto:%email%&quot;&gt;Email&lt;/a&gt;&lt;/div&gt;" name="Jane Howett" position="Chief Operating Officer (COO)" location="Main Office" email="coo@cyder.com.au" placeholders="1" id="4DdzkM8ywYrv600JBKOK-2">
          <mxCell style="label;whiteSpace=wrap;html=1;rounded=0;glass=0;treeFolding=1;treeMoving=1;spacingLeft=10;fontSize=10;" parent="1" vertex="1">
            <mxGeometry x="510" y="180" width="150" height="70" as="geometry" />
          </mxCell>
        </UserObject>
        <mxCell id="4DdzkM8ywYrv600JBKOK-13" value="" style="edgeStyle=orthogonalEdgeStyle;rounded=0;orthogonalLoop=1;jettySize=auto;html=1;fontSize=10;entryX=0;entryY=0.5;entryDx=0;entryDy=0;" parent="1" source="4DdzkM8ywYrv600JBKOK-4" target="4DdzkM8ywYrv600JBKOK-12" edge="1" visible="0">
          <mxGeometry relative="1" as="geometry" />
        </mxCell>
        <mxCell id="4DdzkM8ywYrv600JBKOK-15" value="" style="edgeStyle=orthogonalEdgeStyle;rounded=0;orthogonalLoop=1;jettySize=auto;html=1;fontSize=10;entryX=0;entryY=0.5;entryDx=0;entryDy=0;" parent="1" source="4DdzkM8ywYrv600JBKOK-4" target="4DdzkM8ywYrv600JBKOK-14" edge="1" visible="0">
          <mxGeometry relative="1" as="geometry" />
        </mxCell>
        <UserObject label="%name%&lt;br style=&quot;font-size: 10px;&quot;&gt;&lt;i style=&quot;color: gray; font-size: 10px;&quot;&gt;%position%&lt;/i&gt;&lt;div style=&quot;font-size: 10px;&quot;&gt;&lt;font style=&quot;font-size: 10px;&quot; color=&quot;#808080&quot;&gt;&lt;span style=&quot;font-weight: normal; font-size: 10px;&quot;&gt;%location%&lt;/span&gt;&lt;br style=&quot;font-size: 10px;&quot;&gt;&lt;/font&gt;&lt;a style=&quot;font-size: 10px;&quot; href=&quot;mailto:%email%&quot;&gt;Email&lt;/a&gt;&lt;/div&gt;" name="Mary Market" position="Marketing Manager" location="Main Office" email="marketing@cyder.com.au" placeholders="1" id="4DdzkM8ywYrv600JBKOK-4">
          <mxCell style="label;whiteSpace=wrap;html=1;rounded=0;glass=0;treeFolding=1;treeMoving=1;spacingLeft=10;fontSize=10;" parent="1" vertex="1" collapsed="1">
            <mxGeometry x="95" y="310" width="150" height="70" as="geometry" />
          </mxCell>
        </UserObject>
        <mxCell id="4DdzkM8ywYrv600JBKOK-19" value="" style="edgeStyle=orthogonalEdgeStyle;rounded=0;orthogonalLoop=1;jettySize=auto;html=1;exitX=0.5;exitY=1;exitDx=0;exitDy=0;fontSize=10;entryX=0;entryY=0.5;entryDx=0;entryDy=0;" parent="1" source="4DdzkM8ywYrv600JBKOK-7" target="4DdzkM8ywYrv600JBKOK-18" edge="1" visible="0">
          <mxGeometry relative="1" as="geometry" />
        </mxCell>
        <mxCell id="4DdzkM8ywYrv600JBKOK-23" value="" style="edgeStyle=orthogonalEdgeStyle;rounded=0;orthogonalLoop=1;jettySize=auto;html=1;fontSize=10;entryX=0;entryY=0.5;entryDx=0;entryDy=0;" parent="1" source="4DdzkM8ywYrv600JBKOK-7" target="4DdzkM8ywYrv600JBKOK-20" edge="1" visible="0">
          <mxGeometry relative="1" as="geometry" />
        </mxCell>
        <mxCell id="4DdzkM8ywYrv600JBKOK-25" value="" style="edgeStyle=orthogonalEdgeStyle;rounded=0;orthogonalLoop=1;jettySize=auto;html=1;fontSize=10;exitX=0.5;exitY=1;exitDx=0;exitDy=0;entryX=0;entryY=0.5;entryDx=0;entryDy=0;" parent="1" source="4DdzkM8ywYrv600JBKOK-7" target="4DdzkM8ywYrv600JBKOK-24" edge="1" visible="0">
          <mxGeometry relative="1" as="geometry" />
        </mxCell>
        <UserObject label="%name%&lt;br style=&quot;font-size: 10px;&quot;&gt;&lt;i style=&quot;color: gray; font-size: 10px;&quot;&gt;%position%&lt;/i&gt;&lt;div style=&quot;font-size: 10px;&quot;&gt;&lt;font style=&quot;font-size: 10px;&quot; color=&quot;#808080&quot;&gt;&lt;span style=&quot;font-weight: normal; font-size: 10px;&quot;&gt;%location%&lt;/span&gt;&lt;br style=&quot;font-size: 10px;&quot;&gt;&lt;/font&gt;&lt;a style=&quot;font-size: 10px;&quot; href=&quot;mailto:%email%&quot;&gt;Email&lt;/a&gt;&lt;/div&gt;" name="Malcolm O&#39;Brian" position="Operations Manager" location="Main Office" email="operations@cyder.com.au" placeholders="1" id="4DdzkM8ywYrv600JBKOK-7">
          <mxCell style="label;whiteSpace=wrap;html=1;rounded=0;glass=0;treeFolding=1;treeMoving=1;spacingLeft=10;fontSize=10;" parent="1" vertex="1" collapsed="1">
            <mxGeometry x="648" y="310" width="150" height="70" as="geometry" />
          </mxCell>
        </UserObject>
        <mxCell id="4DdzkM8ywYrv600JBKOK-28" value="" style="edgeStyle=orthogonalEdgeStyle;rounded=0;orthogonalLoop=1;jettySize=auto;html=1;" parent="1" source="4DdzkM8ywYrv600JBKOK-10" target="4DdzkM8ywYrv600JBKOK-27" edge="1" visible="0">
          <mxGeometry relative="1" as="geometry" />
        </mxCell>
        <UserObject label="%name%&lt;br style=&quot;font-size: 10px;&quot;&gt;&lt;i style=&quot;color: gray; font-size: 10px;&quot;&gt;%position%&lt;/i&gt;&lt;div style=&quot;font-size: 10px;&quot;&gt;&lt;font style=&quot;font-size: 10px;&quot; color=&quot;#808080&quot;&gt;&lt;span style=&quot;font-weight: normal; font-size: 10px;&quot;&gt;%location%&lt;/span&gt;&lt;br style=&quot;font-size: 10px;&quot;&gt;&lt;/font&gt;&lt;a style=&quot;font-size: 10px;&quot; href=&quot;mailto:%email%&quot;&gt;Email&lt;/a&gt;&lt;/div&gt;" name="Christine Foster" position="Finance Manager" location="Main Office" email="finance@cyder.com.au" placeholders="1" id="4DdzkM8ywYrv600JBKOK-10">
          <mxCell style="label;whiteSpace=wrap;html=1;rounded=0;glass=0;treeFolding=1;treeMoving=1;spacingLeft=10;fontSize=10;" parent="1" vertex="1" collapsed="1">
            <mxGeometry x="925" y="310" width="150" height="70" as="geometry" />
          </mxCell>
        </UserObject>
        <UserObject label="%name%&lt;br style=&quot;font-size: 10px;&quot;&gt;&lt;i style=&quot;color: gray; font-size: 10px;&quot;&gt;%position%&lt;/i&gt;&lt;div style=&quot;font-size: 10px;&quot;&gt;&lt;font style=&quot;font-size: 10px;&quot; color=&quot;#808080&quot;&gt;&lt;span style=&quot;font-weight: normal; font-size: 10px;&quot;&gt;%location%&lt;/span&gt;&lt;br style=&quot;font-size: 10px;&quot;&gt;&lt;/font&gt;&lt;a style=&quot;font-size: 10px;&quot; href=&quot;mailto:%email%&quot;&gt;Email&lt;/a&gt;&lt;/div&gt;" name="Sam Sales" position="Sales Executive" location="Main Office" email="sales@cyder.com.au" placeholders="1" id="4DdzkM8ywYrv600JBKOK-12">
          <mxCell style="label;whiteSpace=wrap;html=1;rounded=0;glass=0;treeFolding=1;treeMoving=1;spacingLeft=10;fontSize=10;" parent="1" vertex="1" visible="0">
            <mxGeometry x="190" y="504" width="150" height="70" as="geometry" />
          </mxCell>
        </UserObject>
        <UserObject label="%name%&lt;br style=&quot;font-size: 10px;&quot;&gt;&lt;i style=&quot;color: gray; font-size: 10px;&quot;&gt;%position%&lt;/i&gt;&lt;div style=&quot;font-size: 10px;&quot;&gt;&lt;font style=&quot;font-size: 10px;&quot; color=&quot;#808080&quot;&gt;&lt;span style=&quot;font-weight: normal; font-size: 10px;&quot;&gt;%location%&lt;/span&gt;&lt;br style=&quot;font-size: 10px;&quot;&gt;&lt;/font&gt;&lt;a style=&quot;font-size: 10px;&quot; href=&quot;mailto:%email%&quot;&gt;Email&lt;/a&gt;&lt;/div&gt;" name="Lawrie Leader" position="Lead Generator" location="Main Office" email="lead@cyder.com.au" placeholders="1" id="4DdzkM8ywYrv600JBKOK-14">
          <mxCell style="label;whiteSpace=wrap;html=1;rounded=0;glass=0;treeFolding=1;treeMoving=1;spacingLeft=10;fontSize=10;" parent="1" vertex="1" visible="0">
            <mxGeometry x="190" y="414" width="150" height="70" as="geometry" />
          </mxCell>
        </UserObject>
        <mxCell id="4DdzkM8ywYrv600JBKOK-30" value="" style="edgeStyle=orthogonalEdgeStyle;rounded=0;orthogonalLoop=1;jettySize=auto;html=1;" parent="1" source="4DdzkM8ywYrv600JBKOK-16" target="4DdzkM8ywYrv600JBKOK-29" edge="1" visible="0">
          <mxGeometry relative="1" as="geometry" />
        </mxCell>
        <mxCell id="4DdzkM8ywYrv600JBKOK-31" style="edgeStyle=orthogonalEdgeStyle;rounded=0;orthogonalLoop=1;jettySize=auto;html=1;exitX=1;exitY=0.5;exitDx=0;exitDy=0;entryX=0;entryY=0.5;entryDx=0;entryDy=0;dashed=1;" parent="1" source="4DdzkM8ywYrv600JBKOK-16" target="4DdzkM8ywYrv600JBKOK-24" edge="1" visible="0">
          <mxGeometry relative="1" as="geometry">
            <Array as="points">
              <mxPoint x="550" y="345" />
              <mxPoint x="550" y="449" />
            </Array>
          </mxGeometry>
        </mxCell>
        <UserObject label="%name%&lt;br style=&quot;font-size: 10px;&quot;&gt;&lt;i style=&quot;color: gray; font-size: 10px;&quot;&gt;%position%&lt;/i&gt;&lt;div style=&quot;font-size: 10px;&quot;&gt;&lt;font style=&quot;font-size: 10px;&quot; color=&quot;#808080&quot;&gt;&lt;span style=&quot;font-weight: normal; font-size: 10px;&quot;&gt;%location%&lt;/span&gt;&lt;br style=&quot;font-size: 10px;&quot;&gt;&lt;/font&gt;&lt;a style=&quot;font-size: 10px;&quot; href=&quot;mailto:%email%&quot;&gt;Email&lt;/a&gt;&lt;/div&gt;" name="Peter Alison" position="Project Manager/Business Analyst" location="Main Office" email="projects@cyder.com.au" placeholders="1" id="4DdzkM8ywYrv600JBKOK-16">
          <mxCell style="label;whiteSpace=wrap;html=1;rounded=0;glass=0;treeFolding=1;treeMoving=1;spacingLeft=10;fontSize=10;" parent="1" vertex="1" collapsed="1">
            <mxGeometry x="372" y="310" width="150" height="70" as="geometry" />
          </mxCell>
        </UserObject>
        <UserObject label="%name%&lt;br style=&quot;font-size: 10px;&quot;&gt;&lt;i style=&quot;color: gray; font-size: 10px;&quot;&gt;%position%&lt;/i&gt;&lt;div style=&quot;font-size: 10px;&quot;&gt;&lt;font style=&quot;font-size: 10px;&quot; color=&quot;#808080&quot;&gt;&lt;span style=&quot;font-weight: normal; font-size: 10px;&quot;&gt;%location%&lt;/span&gt;&lt;br style=&quot;font-size: 10px;&quot;&gt;&lt;/font&gt;&lt;a style=&quot;font-size: 10px;&quot; href=&quot;mailto:%email%&quot;&gt;Email&lt;/a&gt;&lt;/div&gt;" name="Simone Oscar" position="1st Level Support" location="Main Office" email="support@cyder.com.au" placeholders="1" id="4DdzkM8ywYrv600JBKOK-18">
          <mxCell style="label;whiteSpace=wrap;html=1;rounded=0;glass=0;treeFolding=1;treeMoving=1;spacingLeft=10;fontSize=10;" parent="1" vertex="1" visible="0">
            <mxGeometry x="750" y="594" width="150" height="70" as="geometry" />
          </mxCell>
        </UserObject>
        <UserObject label="%name%&lt;br style=&quot;font-size: 10px;&quot;&gt;&lt;i style=&quot;color: gray; font-size: 10px;&quot;&gt;%position%&lt;/i&gt;&lt;div style=&quot;font-size: 10px;&quot;&gt;&lt;font style=&quot;font-size: 10px;&quot; color=&quot;#808080&quot;&gt;&lt;span style=&quot;font-weight: normal; font-size: 10px;&quot;&gt;%location%&lt;/span&gt;&lt;br style=&quot;font-size: 10px;&quot;&gt;&lt;/font&gt;&lt;a style=&quot;font-size: 10px;&quot; href=&quot;mailto:%email%&quot;&gt;Email&lt;/a&gt;&lt;/div&gt;" name="Tommy Too" position="1st Level Support" location="Main Office" email="tech@cyder.com.au" placeholders="1" id="4DdzkM8ywYrv600JBKOK-20">
          <mxCell style="label;whiteSpace=wrap;html=1;rounded=0;glass=0;treeFolding=1;treeMoving=1;spacingLeft=10;fontSize=10;" parent="1" vertex="1" visible="0">
            <mxGeometry x="750" y="504" width="150" height="70" as="geometry" />
          </mxCell>
        </UserObject>
        <UserObject label="%name%&lt;br style=&quot;font-size: 10px;&quot;&gt;&lt;i style=&quot;color: gray; font-size: 10px;&quot;&gt;%position%&lt;/i&gt;&lt;div style=&quot;font-size: 10px;&quot;&gt;&lt;font style=&quot;font-size: 10px;&quot; color=&quot;#808080&quot;&gt;&lt;span style=&quot;font-weight: normal; font-size: 10px;&quot;&gt;%location%&lt;/span&gt;&lt;br style=&quot;font-size: 10px;&quot;&gt;&lt;/font&gt;&lt;a style=&quot;font-size: 10px;&quot; href=&quot;mailto:%email%&quot;&gt;Email&lt;/a&gt;&lt;/div&gt;" name="Freddie Thomas" position="Functional Technician" location="Main Office" email="functional@cyder.com.au" placeholders="1" id="4DdzkM8ywYrv600JBKOK-24">
          <mxCell style="label;whiteSpace=wrap;html=1;rounded=0;glass=0;treeFolding=1;treeMoving=1;spacingLeft=10;fontSize=10;" parent="1" vertex="1" visible="0">
            <mxGeometry x="750" y="414" width="150" height="70" as="geometry" />
          </mxCell>
        </UserObject>
        <UserObject label="%name%&lt;br style=&quot;font-size: 10px;&quot;&gt;&lt;i style=&quot;color: gray; font-size: 10px;&quot;&gt;%position%&lt;/i&gt;&lt;div style=&quot;font-size: 10px;&quot;&gt;&lt;font style=&quot;font-size: 10px;&quot; color=&quot;#808080&quot;&gt;&lt;span style=&quot;font-weight: normal; font-size: 10px;&quot;&gt;%location%&lt;/span&gt;&lt;br style=&quot;font-size: 10px;&quot;&gt;&lt;/font&gt;&lt;a style=&quot;font-size: 10px;&quot; href=&quot;mailto:%email%&quot;&gt;Email&lt;/a&gt;&lt;/div&gt;" name="Francis Kelly" position="Bookkeeper" location="Main Office" email="accounts@cyder.com.au" placeholders="1" id="4DdzkM8ywYrv600JBKOK-27">
          <mxCell style="label;whiteSpace=wrap;html=1;rounded=0;glass=0;treeFolding=1;treeMoving=1;spacingLeft=10;fontSize=10;" parent="1" vertex="1" visible="0">
            <mxGeometry x="925" y="414" width="150" height="70" as="geometry" />
          </mxCell>
        </UserObject>
        <UserObject label="%name%&lt;br style=&quot;font-size: 10px;&quot;&gt;&lt;i style=&quot;color: gray; font-size: 10px;&quot;&gt;%position%&lt;/i&gt;&lt;div style=&quot;font-size: 10px;&quot;&gt;&lt;font style=&quot;font-size: 10px;&quot; color=&quot;#808080&quot;&gt;&lt;span style=&quot;font-weight: normal; font-size: 10px;&quot;&gt;%location%&lt;/span&gt;&lt;br style=&quot;font-size: 10px;&quot;&gt;&lt;/font&gt;&lt;a style=&quot;font-size: 10px;&quot; href=&quot;mailto:%email%&quot;&gt;Email&lt;/a&gt;&lt;/div&gt;" name="Barry Andrews" position="Business Analyst" location="Main Office" email="analyst@cyder.com.au" placeholders="1" id="4DdzkM8ywYrv600JBKOK-29">
          <mxCell style="label;whiteSpace=wrap;html=1;rounded=0;glass=0;treeFolding=1;treeMoving=1;spacingLeft=10;fontSize=10;" parent="1" vertex="1" visible="0">
            <mxGeometry x="372" y="414" width="150" height="70" as="geometry" />
          </mxCell>
        </UserObject>
      </root>
    </mxGraphModel>
  </diagram>
  <diagram name="Website Org Chart" id="pPc59AxAQavptHm7HkzP">
    <mxGraphModel dx="1328" dy="817" grid="0" gridSize="10" guides="1" tooltips="1" connect="1" arrows="1" fold="1" page="1" pageScale="1" pageWidth="1169" pageHeight="827" math="0" shadow="0">
      <root>
        <mxCell id="T047ryPInSRZogSb18rD-0" />
        <mxCell id="T047ryPInSRZogSb18rD-1" parent="T047ryPInSRZogSb18rD-0" />
        <mxCell id="T047ryPInSRZogSb18rD-2" value="" style="edgeStyle=orthogonalEdgeStyle;rounded=0;orthogonalLoop=1;jettySize=auto;html=1;fontSize=10;" edge="1" parent="T047ryPInSRZogSb18rD-1" source="T047ryPInSRZogSb18rD-3">
          <mxGeometry relative="1" as="geometry">
            <mxPoint x="585" y="250" as="targetPoint" />
          </mxGeometry>
        </mxCell>
        <UserObject label="%name%&lt;br style=&quot;font-size: 10px;&quot;&gt;&lt;i style=&quot;color: gray; font-size: 10px;&quot;&gt;%position%&lt;/i&gt;&lt;div style=&quot;font-size: 10px;&quot;&gt;&lt;font style=&quot;font-size: 10px;&quot; color=&quot;#808080&quot;&gt;&lt;span style=&quot;font-weight: normal; font-size: 10px;&quot;&gt;%location%&lt;/span&gt;&lt;br style=&quot;font-size: 10px;&quot;&gt;&lt;/font&gt;&lt;a style=&quot;font-size: 10px;&quot; href=&quot;mailto:%email%&quot;&gt;Email&lt;/a&gt;&lt;/div&gt;" name="Michael Piko" position="Director" location="Remote (VC)" email="mcihael@cyder.com.au" placeholders="1" id="T047ryPInSRZogSb18rD-3">
          <mxCell style="label;whiteSpace=wrap;html=1;rounded=0;glass=0;treeFolding=1;treeMoving=1;spacingLeft=10;fontSize=10;" vertex="1" parent="T047ryPInSRZogSb18rD-1">
            <mxGeometry x="510" y="150" width="150" height="70" as="geometry" />
          </mxCell>
        </UserObject>
        <mxCell id="T047ryPInSRZogSb18rD-4" value="" style="edgeStyle=orthogonalEdgeStyle;rounded=0;orthogonalLoop=1;jettySize=auto;html=1;exitX=0.5;exitY=1;exitDx=0;exitDy=0;fontSize=10;" edge="1" parent="T047ryPInSRZogSb18rD-1" target="T047ryPInSRZogSb18rD-11">
          <mxGeometry relative="1" as="geometry">
            <mxPoint x="585" y="250" as="sourcePoint" />
          </mxGeometry>
        </mxCell>
        <mxCell id="T047ryPInSRZogSb18rD-5" value="" style="edgeStyle=orthogonalEdgeStyle;rounded=0;orthogonalLoop=1;jettySize=auto;html=1;exitX=0.5;exitY=1;exitDx=0;exitDy=0;fontSize=10;" edge="1" parent="T047ryPInSRZogSb18rD-1" target="T047ryPInSRZogSb18rD-15">
          <mxGeometry relative="1" as="geometry">
            <mxPoint x="585" y="250" as="sourcePoint" />
          </mxGeometry>
        </mxCell>
        <mxCell id="T047ryPInSRZogSb18rD-6" value="" style="edgeStyle=orthogonalEdgeStyle;rounded=0;orthogonalLoop=1;jettySize=auto;html=1;exitX=0.5;exitY=1;exitDx=0;exitDy=0;fontSize=10;" edge="1" parent="T047ryPInSRZogSb18rD-1" target="T047ryPInSRZogSb18rD-17">
          <mxGeometry relative="1" as="geometry">
            <mxPoint x="585" y="250" as="sourcePoint" />
          </mxGeometry>
        </mxCell>
        <mxCell id="T047ryPInSRZogSb18rD-7" value="" style="edgeStyle=orthogonalEdgeStyle;rounded=0;orthogonalLoop=1;jettySize=auto;html=1;fontSize=10;exitX=0.5;exitY=1;exitDx=0;exitDy=0;" edge="1" parent="T047ryPInSRZogSb18rD-1" target="T047ryPInSRZogSb18rD-22">
          <mxGeometry relative="1" as="geometry">
            <mxPoint x="585" y="250" as="sourcePoint" />
          </mxGeometry>
        </mxCell>
        <mxCell id="T047ryPInSRZogSb18rD-9" value="" style="edgeStyle=orthogonalEdgeStyle;rounded=0;orthogonalLoop=1;jettySize=auto;html=1;fontSize=10;entryX=0;entryY=0.5;entryDx=0;entryDy=0;" edge="1" visible="0" parent="T047ryPInSRZogSb18rD-1" source="T047ryPInSRZogSb18rD-11" target="T047ryPInSRZogSb18rD-18">
          <mxGeometry relative="1" as="geometry" />
        </mxCell>
        <mxCell id="T047ryPInSRZogSb18rD-10" value="" style="edgeStyle=orthogonalEdgeStyle;rounded=0;orthogonalLoop=1;jettySize=auto;html=1;fontSize=10;entryX=0;entryY=0.5;entryDx=0;entryDy=0;" edge="1" visible="0" parent="T047ryPInSRZogSb18rD-1" source="T047ryPInSRZogSb18rD-11" target="T047ryPInSRZogSb18rD-19">
          <mxGeometry relative="1" as="geometry" />
        </mxCell>
        <UserObject label="%name%&lt;br style=&quot;font-size: 10px;&quot;&gt;&lt;i style=&quot;color: gray; font-size: 10px;&quot;&gt;%position%&lt;/i&gt;&lt;div style=&quot;font-size: 10px;&quot;&gt;&lt;font style=&quot;font-size: 10px;&quot; color=&quot;#808080&quot;&gt;&lt;span style=&quot;font-weight: normal; font-size: 10px;&quot;&gt;%location%&lt;/span&gt;&lt;br style=&quot;font-size: 10px;&quot;&gt;&lt;/font&gt;&lt;a style=&quot;font-size: 10px;&quot; href=&quot;mailto:%email%&quot;&gt;Email&lt;/a&gt;&lt;/div&gt;" name="Madison Bull" position="Marketing Manager" location="Semi-Remote" email="marketing@cyder.com.au" placeholders="1" id="T047ryPInSRZogSb18rD-11">
          <mxCell style="label;whiteSpace=wrap;html=1;rounded=0;glass=0;treeFolding=1;treeMoving=1;spacingLeft=10;fontSize=10;" vertex="1" collapsed="1" parent="T047ryPInSRZogSb18rD-1">
            <mxGeometry x="190" y="290" width="150" height="70" as="geometry" />
          </mxCell>
        </UserObject>
        <mxCell id="T047ryPInSRZogSb18rD-12" value="" style="edgeStyle=orthogonalEdgeStyle;rounded=0;orthogonalLoop=1;jettySize=auto;html=1;exitX=0.5;exitY=1;exitDx=0;exitDy=0;fontSize=10;entryX=0;entryY=0.5;entryDx=0;entryDy=0;" edge="1" visible="0" parent="T047ryPInSRZogSb18rD-1" source="T047ryPInSRZogSb18rD-15" target="T047ryPInSRZogSb18rD-23">
          <mxGeometry relative="1" as="geometry" />
        </mxCell>
        <mxCell id="T047ryPInSRZogSb18rD-13" value="" style="edgeStyle=orthogonalEdgeStyle;rounded=0;orthogonalLoop=1;jettySize=auto;html=1;fontSize=10;entryX=0;entryY=0.5;entryDx=0;entryDy=0;" edge="1" visible="0" parent="T047ryPInSRZogSb18rD-1" source="T047ryPInSRZogSb18rD-15" target="T047ryPInSRZogSb18rD-24">
          <mxGeometry relative="1" as="geometry" />
        </mxCell>
        <mxCell id="T047ryPInSRZogSb18rD-14" value="" style="edgeStyle=orthogonalEdgeStyle;rounded=0;orthogonalLoop=1;jettySize=auto;html=1;fontSize=10;exitX=0.5;exitY=1;exitDx=0;exitDy=0;entryX=0;entryY=0.5;entryDx=0;entryDy=0;" edge="1" visible="0" parent="T047ryPInSRZogSb18rD-1" source="T047ryPInSRZogSb18rD-15" target="T047ryPInSRZogSb18rD-25">
          <mxGeometry relative="1" as="geometry" />
        </mxCell>
        <UserObject label="%name%&lt;br style=&quot;font-size: 10px;&quot;&gt;&lt;i style=&quot;color: gray; font-size: 10px;&quot;&gt;%position%&lt;/i&gt;&lt;div style=&quot;font-size: 10px;&quot;&gt;&lt;font style=&quot;font-size: 10px;&quot; color=&quot;#808080&quot;&gt;&lt;span style=&quot;font-weight: normal; font-size: 10px;&quot;&gt;%location%&lt;/span&gt;&lt;br style=&quot;font-size: 10px;&quot;&gt;&lt;/font&gt;&lt;a style=&quot;font-size: 10px;&quot; href=&quot;mailto:%email%&quot;&gt;Email&lt;/a&gt;&lt;/div&gt;" name="Malcolm O&#39;Brian" position="Operations Manager" location="Office" email="operations@cyder.com.au" placeholders="1" id="T047ryPInSRZogSb18rD-15">
          <mxCell style="label;whiteSpace=wrap;html=1;rounded=0;glass=0;treeFolding=1;treeMoving=1;spacingLeft=10;fontSize=10;" vertex="1" collapsed="1" parent="T047ryPInSRZogSb18rD-1">
            <mxGeometry x="617" y="290" width="150" height="70" as="geometry" />
          </mxCell>
        </UserObject>
        <mxCell id="T047ryPInSRZogSb18rD-16" value="" style="edgeStyle=orthogonalEdgeStyle;rounded=0;orthogonalLoop=1;jettySize=auto;html=1;" edge="1" visible="0" parent="T047ryPInSRZogSb18rD-1" source="T047ryPInSRZogSb18rD-17" target="T047ryPInSRZogSb18rD-26">
          <mxGeometry relative="1" as="geometry" />
        </mxCell>
        <UserObject label="%name%&lt;br style=&quot;font-size: 10px;&quot;&gt;&lt;i style=&quot;color: gray; font-size: 10px;&quot;&gt;%position%&lt;/i&gt;&lt;div style=&quot;font-size: 10px;&quot;&gt;&lt;font style=&quot;font-size: 10px;&quot; color=&quot;#808080&quot;&gt;&lt;span style=&quot;font-weight: normal; font-size: 10px;&quot;&gt;%location%&lt;/span&gt;&lt;br style=&quot;font-size: 10px;&quot;&gt;&lt;/font&gt;&lt;a style=&quot;font-size: 10px;&quot; href=&quot;mailto:%email%&quot;&gt;Email&lt;/a&gt;&lt;/div&gt;" name="Tracey Foster" position="Finance Manager" location="Semi-Remote" email="finance@cyder.com.au" placeholders="1" id="T047ryPInSRZogSb18rD-17">
          <mxCell style="label;whiteSpace=wrap;html=1;rounded=0;glass=0;treeFolding=1;treeMoving=1;spacingLeft=10;fontSize=10;" vertex="1" collapsed="1" parent="T047ryPInSRZogSb18rD-1">
            <mxGeometry x="830" y="290" width="150" height="70" as="geometry" />
          </mxCell>
        </UserObject>
        <UserObject label="%name%&lt;br style=&quot;font-size: 10px;&quot;&gt;&lt;i style=&quot;color: gray; font-size: 10px;&quot;&gt;%position%&lt;/i&gt;&lt;div style=&quot;font-size: 10px;&quot;&gt;&lt;font style=&quot;font-size: 10px;&quot; color=&quot;#808080&quot;&gt;&lt;span style=&quot;font-weight: normal; font-size: 10px;&quot;&gt;%location%&lt;/span&gt;&lt;br style=&quot;font-size: 10px;&quot;&gt;&lt;/font&gt;&lt;a style=&quot;font-size: 10px;&quot; href=&quot;mailto:%email%&quot;&gt;Email&lt;/a&gt;&lt;/div&gt;" name="Sam Sales" position="Sales Executive" location="Main Office" email="sales@cyder.com.au" placeholders="1" id="T047ryPInSRZogSb18rD-18">
          <mxCell style="label;whiteSpace=wrap;html=1;rounded=0;glass=0;treeFolding=1;treeMoving=1;spacingLeft=10;fontSize=10;" vertex="1" visible="0" parent="T047ryPInSRZogSb18rD-1">
            <mxGeometry x="285" y="484" width="150" height="70" as="geometry" />
          </mxCell>
        </UserObject>
        <UserObject label="%name%&lt;br style=&quot;font-size: 10px;&quot;&gt;&lt;i style=&quot;color: gray; font-size: 10px;&quot;&gt;%position%&lt;/i&gt;&lt;div style=&quot;font-size: 10px;&quot;&gt;&lt;font style=&quot;font-size: 10px;&quot; color=&quot;#808080&quot;&gt;&lt;span style=&quot;font-weight: normal; font-size: 10px;&quot;&gt;%location%&lt;/span&gt;&lt;br style=&quot;font-size: 10px;&quot;&gt;&lt;/font&gt;&lt;a style=&quot;font-size: 10px;&quot; href=&quot;mailto:%email%&quot;&gt;Email&lt;/a&gt;&lt;/div&gt;" name="Lawrie Leader" position="Lead Generator" location="Main Office" email="lead@cyder.com.au" placeholders="1" id="T047ryPInSRZogSb18rD-19">
          <mxCell style="label;whiteSpace=wrap;html=1;rounded=0;glass=0;treeFolding=1;treeMoving=1;spacingLeft=10;fontSize=10;" vertex="1" visible="0" parent="T047ryPInSRZogSb18rD-1">
            <mxGeometry x="285" y="394" width="150" height="70" as="geometry" />
          </mxCell>
        </UserObject>
        <mxCell id="T047ryPInSRZogSb18rD-20" value="" style="edgeStyle=orthogonalEdgeStyle;rounded=0;orthogonalLoop=1;jettySize=auto;html=1;" edge="1" visible="0" parent="T047ryPInSRZogSb18rD-1" source="T047ryPInSRZogSb18rD-22" target="T047ryPInSRZogSb18rD-27">
          <mxGeometry relative="1" as="geometry" />
        </mxCell>
        <mxCell id="T047ryPInSRZogSb18rD-21" style="edgeStyle=orthogonalEdgeStyle;rounded=0;orthogonalLoop=1;jettySize=auto;html=1;exitX=1;exitY=0.5;exitDx=0;exitDy=0;entryX=0;entryY=0.5;entryDx=0;entryDy=0;dashed=1;" edge="1" visible="0" parent="T047ryPInSRZogSb18rD-1" source="T047ryPInSRZogSb18rD-22" target="T047ryPInSRZogSb18rD-25">
          <mxGeometry relative="1" as="geometry">
            <Array as="points">
              <mxPoint x="598" y="325" />
              <mxPoint x="598" y="429" />
            </Array>
          </mxGeometry>
        </mxCell>
        <UserObject label="%name%&lt;br style=&quot;font-size: 10px;&quot;&gt;&lt;i style=&quot;color: gray; font-size: 10px;&quot;&gt;%position%&lt;/i&gt;&lt;div style=&quot;font-size: 10px;&quot;&gt;&lt;font style=&quot;font-size: 10px;&quot; color=&quot;#808080&quot;&gt;&lt;span style=&quot;font-weight: normal; font-size: 10px;&quot;&gt;%location%&lt;/span&gt;&lt;br style=&quot;font-size: 10px;&quot;&gt;&lt;/font&gt;&lt;a style=&quot;font-size: 10px;&quot; href=&quot;mailto:%email%&quot;&gt;Email&lt;/a&gt;&lt;/div&gt;" name="Peter Alison" position="Project Manager/Business Analyst" location="Remote" email="projects@cyder.com.au" placeholders="1" id="T047ryPInSRZogSb18rD-22">
          <mxCell style="label;whiteSpace=wrap;html=1;rounded=0;glass=0;treeFolding=1;treeMoving=1;spacingLeft=10;fontSize=10;" vertex="1" collapsed="1" parent="T047ryPInSRZogSb18rD-1">
            <mxGeometry x="403" y="290" width="150" height="70" as="geometry" />
          </mxCell>
        </UserObject>
        <UserObject label="%name%&lt;br style=&quot;font-size: 10px;&quot;&gt;&lt;i style=&quot;color: gray; font-size: 10px;&quot;&gt;%position%&lt;/i&gt;&lt;div style=&quot;font-size: 10px;&quot;&gt;&lt;font style=&quot;font-size: 10px;&quot; color=&quot;#808080&quot;&gt;&lt;span style=&quot;font-weight: normal; font-size: 10px;&quot;&gt;%location%&lt;/span&gt;&lt;br style=&quot;font-size: 10px;&quot;&gt;&lt;/font&gt;&lt;a style=&quot;font-size: 10px;&quot; href=&quot;mailto:%email%&quot;&gt;Email&lt;/a&gt;&lt;/div&gt;" name="Simone Oscar" position="1st Level Support" location="Main Office" email="support@cyder.com.au" placeholders="1" id="T047ryPInSRZogSb18rD-23">
          <mxCell style="label;whiteSpace=wrap;html=1;rounded=0;glass=0;treeFolding=1;treeMoving=1;spacingLeft=10;fontSize=10;" vertex="1" visible="0" parent="T047ryPInSRZogSb18rD-1">
            <mxGeometry x="732" y="574" width="150" height="70" as="geometry" />
          </mxCell>
        </UserObject>
        <UserObject label="%name%&lt;br style=&quot;font-size: 10px;&quot;&gt;&lt;i style=&quot;color: gray; font-size: 10px;&quot;&gt;%position%&lt;/i&gt;&lt;div style=&quot;font-size: 10px;&quot;&gt;&lt;font style=&quot;font-size: 10px;&quot; color=&quot;#808080&quot;&gt;&lt;span style=&quot;font-weight: normal; font-size: 10px;&quot;&gt;%location%&lt;/span&gt;&lt;br style=&quot;font-size: 10px;&quot;&gt;&lt;/font&gt;&lt;a style=&quot;font-size: 10px;&quot; href=&quot;mailto:%email%&quot;&gt;Email&lt;/a&gt;&lt;/div&gt;" name="Tommy Too" position="1st Level Support" location="Main Office" email="tech@cyder.com.au" placeholders="1" id="T047ryPInSRZogSb18rD-24">
          <mxCell style="label;whiteSpace=wrap;html=1;rounded=0;glass=0;treeFolding=1;treeMoving=1;spacingLeft=10;fontSize=10;" vertex="1" visible="0" parent="T047ryPInSRZogSb18rD-1">
            <mxGeometry x="732" y="484" width="150" height="70" as="geometry" />
          </mxCell>
        </UserObject>
        <UserObject label="%name%&lt;br style=&quot;font-size: 10px;&quot;&gt;&lt;i style=&quot;color: gray; font-size: 10px;&quot;&gt;%position%&lt;/i&gt;&lt;div style=&quot;font-size: 10px;&quot;&gt;&lt;font style=&quot;font-size: 10px;&quot; color=&quot;#808080&quot;&gt;&lt;span style=&quot;font-weight: normal; font-size: 10px;&quot;&gt;%location%&lt;/span&gt;&lt;br style=&quot;font-size: 10px;&quot;&gt;&lt;/font&gt;&lt;a style=&quot;font-size: 10px;&quot; href=&quot;mailto:%email%&quot;&gt;Email&lt;/a&gt;&lt;/div&gt;" name="Freddie Thomas" position="Functional Technician" location="Main Office" email="functional@cyder.com.au" placeholders="1" id="T047ryPInSRZogSb18rD-25">
          <mxCell style="label;whiteSpace=wrap;html=1;rounded=0;glass=0;treeFolding=1;treeMoving=1;spacingLeft=10;fontSize=10;" vertex="1" visible="0" parent="T047ryPInSRZogSb18rD-1">
            <mxGeometry x="780" y="394" width="150" height="70" as="geometry" />
          </mxCell>
        </UserObject>
        <UserObject label="%name%&lt;br style=&quot;font-size: 10px;&quot;&gt;&lt;i style=&quot;color: gray; font-size: 10px;&quot;&gt;%position%&lt;/i&gt;&lt;div style=&quot;font-size: 10px;&quot;&gt;&lt;font style=&quot;font-size: 10px;&quot; color=&quot;#808080&quot;&gt;&lt;span style=&quot;font-weight: normal; font-size: 10px;&quot;&gt;%location%&lt;/span&gt;&lt;br style=&quot;font-size: 10px;&quot;&gt;&lt;/font&gt;&lt;a style=&quot;font-size: 10px;&quot; href=&quot;mailto:%email%&quot;&gt;Email&lt;/a&gt;&lt;/div&gt;" name="Francis Kelly" position="Bookkeeper" location="Main Office" email="accounts@cyder.com.au" placeholders="1" id="T047ryPInSRZogSb18rD-26">
          <mxCell style="label;whiteSpace=wrap;html=1;rounded=0;glass=0;treeFolding=1;treeMoving=1;spacingLeft=10;fontSize=10;" vertex="1" visible="0" parent="T047ryPInSRZogSb18rD-1">
            <mxGeometry x="830" y="394" width="150" height="70" as="geometry" />
          </mxCell>
        </UserObject>
        <UserObject label="%name%&lt;br style=&quot;font-size: 10px;&quot;&gt;&lt;i style=&quot;color: gray; font-size: 10px;&quot;&gt;%position%&lt;/i&gt;&lt;div style=&quot;font-size: 10px;&quot;&gt;&lt;font style=&quot;font-size: 10px;&quot; color=&quot;#808080&quot;&gt;&lt;span style=&quot;font-weight: normal; font-size: 10px;&quot;&gt;%location%&lt;/span&gt;&lt;br style=&quot;font-size: 10px;&quot;&gt;&lt;/font&gt;&lt;a style=&quot;font-size: 10px;&quot; href=&quot;mailto:%email%&quot;&gt;Email&lt;/a&gt;&lt;/div&gt;" name="Barry Andrews" position="Business Analyst" location="Main Office" email="analyst@cyder.com.au" placeholders="1" id="T047ryPInSRZogSb18rD-27">
          <mxCell style="label;whiteSpace=wrap;html=1;rounded=0;glass=0;treeFolding=1;treeMoving=1;spacingLeft=10;fontSize=10;" vertex="1" visible="0" parent="T047ryPInSRZogSb18rD-1">
            <mxGeometry x="420" y="394" width="150" height="70" as="geometry" />
          </mxCell>
        </UserObject>
      </root>
    </mxGraphModel>
  </diagram>
  <diagram name="5 Year Org Chart" id="OI6fNk_OYEe_PGsQH1r5">
    <mxGraphModel dx="1434" dy="835" grid="1" gridSize="10" guides="1" tooltips="1" connect="1" arrows="1" fold="1" page="1" pageScale="1" pageWidth="1169" pageHeight="827" math="0" shadow="0">
      <root>
        <mxCell id="tNbWX40E0FUAv1769Rd1-0" />
        <mxCell id="tNbWX40E0FUAv1769Rd1-1" parent="tNbWX40E0FUAv1769Rd1-0" />
        <mxCell id="tNbWX40E0FUAv1769Rd1-2" value="" style="edgeStyle=orthogonalEdgeStyle;rounded=0;orthogonalLoop=1;jettySize=auto;html=1;fontSize=10;" edge="1" parent="tNbWX40E0FUAv1769Rd1-1" source="tNbWX40E0FUAv1769Rd1-3" target="tNbWX40E0FUAv1769Rd1-8">
          <mxGeometry relative="1" as="geometry" />
        </mxCell>
        <UserObject label="%name%&lt;br style=&quot;font-size: 10px;&quot;&gt;&lt;i style=&quot;color: gray; font-size: 10px;&quot;&gt;%position%&lt;/i&gt;&lt;div style=&quot;font-size: 10px;&quot;&gt;&lt;font style=&quot;font-size: 10px;&quot; color=&quot;#808080&quot;&gt;&lt;span style=&quot;font-weight: normal; font-size: 10px;&quot;&gt;%location%&lt;/span&gt;&lt;br style=&quot;font-size: 10px;&quot;&gt;&lt;/font&gt;&lt;a style=&quot;font-size: 10px;&quot; href=&quot;mailto:%email%&quot;&gt;Email&lt;/a&gt;&lt;/div&gt;" name="Michael Piko" position="Stakeholder" location="On a boat" email="mcihael@cyder.com.au" placeholders="1" id="tNbWX40E0FUAv1769Rd1-3">
          <mxCell style="label;whiteSpace=wrap;html=1;rounded=0;glass=0;treeFolding=1;treeMoving=1;spacingLeft=10;fontSize=10;" vertex="1" parent="tNbWX40E0FUAv1769Rd1-1">
            <mxGeometry x="510" y="80" width="150" height="70" as="geometry" />
          </mxCell>
        </UserObject>
        <mxCell id="tNbWX40E0FUAv1769Rd1-4" value="" style="edgeStyle=orthogonalEdgeStyle;rounded=0;orthogonalLoop=1;jettySize=auto;html=1;exitX=0.5;exitY=1;exitDx=0;exitDy=0;fontSize=10;" edge="1" parent="tNbWX40E0FUAv1769Rd1-1" source="tNbWX40E0FUAv1769Rd1-8" target="tNbWX40E0FUAv1769Rd1-11">
          <mxGeometry relative="1" as="geometry" />
        </mxCell>
        <mxCell id="tNbWX40E0FUAv1769Rd1-5" value="" style="edgeStyle=orthogonalEdgeStyle;rounded=0;orthogonalLoop=1;jettySize=auto;html=1;exitX=0.5;exitY=1;exitDx=0;exitDy=0;fontSize=10;" edge="1" parent="tNbWX40E0FUAv1769Rd1-1" source="tNbWX40E0FUAv1769Rd1-8" target="tNbWX40E0FUAv1769Rd1-15">
          <mxGeometry relative="1" as="geometry" />
        </mxCell>
        <mxCell id="tNbWX40E0FUAv1769Rd1-6" value="" style="edgeStyle=orthogonalEdgeStyle;rounded=0;orthogonalLoop=1;jettySize=auto;html=1;exitX=0.5;exitY=1;exitDx=0;exitDy=0;fontSize=10;" edge="1" parent="tNbWX40E0FUAv1769Rd1-1" source="tNbWX40E0FUAv1769Rd1-8" target="tNbWX40E0FUAv1769Rd1-17">
          <mxGeometry relative="1" as="geometry" />
        </mxCell>
        <mxCell id="tNbWX40E0FUAv1769Rd1-7" value="" style="edgeStyle=orthogonalEdgeStyle;rounded=0;orthogonalLoop=1;jettySize=auto;html=1;fontSize=10;exitX=0.5;exitY=1;exitDx=0;exitDy=0;" edge="1" parent="tNbWX40E0FUAv1769Rd1-1" source="tNbWX40E0FUAv1769Rd1-8" target="tNbWX40E0FUAv1769Rd1-22">
          <mxGeometry relative="1" as="geometry" />
        </mxCell>
        <UserObject label="%name%&lt;br style=&quot;font-size: 10px;&quot;&gt;&lt;i style=&quot;color: gray; font-size: 10px;&quot;&gt;%position%&lt;/i&gt;&lt;div style=&quot;font-size: 10px;&quot;&gt;&lt;font style=&quot;font-size: 10px;&quot; color=&quot;#808080&quot;&gt;&lt;span style=&quot;font-weight: normal; font-size: 10px;&quot;&gt;%location%&lt;/span&gt;&lt;br style=&quot;font-size: 10px;&quot;&gt;&lt;/font&gt;&lt;a style=&quot;font-size: 10px;&quot; href=&quot;mailto:%email%&quot;&gt;Email&lt;/a&gt;&lt;/div&gt;" name="Jane Howett" position="Chief Operating Officer (COO)" location="Main Office" email="coo@cyder.com.au" placeholders="1" id="tNbWX40E0FUAv1769Rd1-8">
          <mxCell style="label;whiteSpace=wrap;html=1;rounded=0;glass=0;treeFolding=1;treeMoving=1;spacingLeft=10;fontSize=10;" vertex="1" parent="tNbWX40E0FUAv1769Rd1-1">
            <mxGeometry x="510" y="180" width="150" height="70" as="geometry" />
          </mxCell>
        </UserObject>
        <mxCell id="tNbWX40E0FUAv1769Rd1-9" value="" style="edgeStyle=orthogonalEdgeStyle;rounded=0;orthogonalLoop=1;jettySize=auto;html=1;fontSize=10;entryX=0;entryY=0.5;entryDx=0;entryDy=0;" edge="1" parent="tNbWX40E0FUAv1769Rd1-1" source="tNbWX40E0FUAv1769Rd1-11" target="tNbWX40E0FUAv1769Rd1-18">
          <mxGeometry relative="1" as="geometry" />
        </mxCell>
        <mxCell id="tNbWX40E0FUAv1769Rd1-10" value="" style="edgeStyle=orthogonalEdgeStyle;rounded=0;orthogonalLoop=1;jettySize=auto;html=1;fontSize=10;entryX=0;entryY=0.5;entryDx=0;entryDy=0;" edge="1" parent="tNbWX40E0FUAv1769Rd1-1" source="tNbWX40E0FUAv1769Rd1-11" target="tNbWX40E0FUAv1769Rd1-19">
          <mxGeometry relative="1" as="geometry" />
        </mxCell>
        <UserObject label="%name%&lt;br style=&quot;font-size: 10px;&quot;&gt;&lt;i style=&quot;color: gray; font-size: 10px;&quot;&gt;%position%&lt;/i&gt;&lt;div style=&quot;font-size: 10px;&quot;&gt;&lt;font style=&quot;font-size: 10px;&quot; color=&quot;#808080&quot;&gt;&lt;span style=&quot;font-weight: normal; font-size: 10px;&quot;&gt;%location%&lt;/span&gt;&lt;br style=&quot;font-size: 10px;&quot;&gt;&lt;/font&gt;&lt;a style=&quot;font-size: 10px;&quot; href=&quot;mailto:%email%&quot;&gt;Email&lt;/a&gt;&lt;/div&gt;" name="Mary Market" position="Marketing Manager" location="Main Office" email="marketing@cyder.com.au" placeholders="1" id="tNbWX40E0FUAv1769Rd1-11">
          <mxCell style="label;whiteSpace=wrap;html=1;rounded=0;glass=0;treeFolding=1;treeMoving=1;spacingLeft=10;fontSize=10;" vertex="1" parent="tNbWX40E0FUAv1769Rd1-1">
            <mxGeometry x="95" y="310" width="150" height="70" as="geometry" />
          </mxCell>
        </UserObject>
        <mxCell id="tNbWX40E0FUAv1769Rd1-12" value="" style="edgeStyle=orthogonalEdgeStyle;rounded=0;orthogonalLoop=1;jettySize=auto;html=1;exitX=0.5;exitY=1;exitDx=0;exitDy=0;fontSize=10;entryX=0;entryY=0.5;entryDx=0;entryDy=0;" edge="1" parent="tNbWX40E0FUAv1769Rd1-1" source="tNbWX40E0FUAv1769Rd1-15" target="tNbWX40E0FUAv1769Rd1-23">
          <mxGeometry relative="1" as="geometry" />
        </mxCell>
        <mxCell id="tNbWX40E0FUAv1769Rd1-13" value="" style="edgeStyle=orthogonalEdgeStyle;rounded=0;orthogonalLoop=1;jettySize=auto;html=1;fontSize=10;entryX=0;entryY=0.5;entryDx=0;entryDy=0;" edge="1" parent="tNbWX40E0FUAv1769Rd1-1" source="tNbWX40E0FUAv1769Rd1-15" target="tNbWX40E0FUAv1769Rd1-24">
          <mxGeometry relative="1" as="geometry" />
        </mxCell>
        <mxCell id="tNbWX40E0FUAv1769Rd1-14" value="" style="edgeStyle=orthogonalEdgeStyle;rounded=0;orthogonalLoop=1;jettySize=auto;html=1;fontSize=10;exitX=0.5;exitY=1;exitDx=0;exitDy=0;entryX=0;entryY=0.5;entryDx=0;entryDy=0;" edge="1" parent="tNbWX40E0FUAv1769Rd1-1" source="tNbWX40E0FUAv1769Rd1-15" target="tNbWX40E0FUAv1769Rd1-25">
          <mxGeometry relative="1" as="geometry" />
        </mxCell>
        <UserObject label="%name%&lt;br style=&quot;font-size: 10px;&quot;&gt;&lt;i style=&quot;color: gray; font-size: 10px;&quot;&gt;%position%&lt;/i&gt;&lt;div style=&quot;font-size: 10px;&quot;&gt;&lt;font style=&quot;font-size: 10px;&quot; color=&quot;#808080&quot;&gt;&lt;span style=&quot;font-weight: normal; font-size: 10px;&quot;&gt;%location%&lt;/span&gt;&lt;br style=&quot;font-size: 10px;&quot;&gt;&lt;/font&gt;&lt;a style=&quot;font-size: 10px;&quot; href=&quot;mailto:%email%&quot;&gt;Email&lt;/a&gt;&lt;/div&gt;" name="Malcolm O&#39;Brian" position="Operations Manager" location="Main Office" email="operations@cyder.com.au" placeholders="1" id="tNbWX40E0FUAv1769Rd1-15">
          <mxCell style="label;whiteSpace=wrap;html=1;rounded=0;glass=0;treeFolding=1;treeMoving=1;spacingLeft=10;fontSize=10;" vertex="1" parent="tNbWX40E0FUAv1769Rd1-1">
            <mxGeometry x="648" y="310" width="150" height="70" as="geometry" />
          </mxCell>
        </UserObject>
        <mxCell id="tNbWX40E0FUAv1769Rd1-16" value="" style="edgeStyle=orthogonalEdgeStyle;rounded=0;orthogonalLoop=1;jettySize=auto;html=1;" edge="1" parent="tNbWX40E0FUAv1769Rd1-1" source="tNbWX40E0FUAv1769Rd1-17" target="tNbWX40E0FUAv1769Rd1-26">
          <mxGeometry relative="1" as="geometry" />
        </mxCell>
        <UserObject label="%name%&lt;br style=&quot;font-size: 10px;&quot;&gt;&lt;i style=&quot;color: gray; font-size: 10px;&quot;&gt;%position%&lt;/i&gt;&lt;div style=&quot;font-size: 10px;&quot;&gt;&lt;font style=&quot;font-size: 10px;&quot; color=&quot;#808080&quot;&gt;&lt;span style=&quot;font-weight: normal; font-size: 10px;&quot;&gt;%location%&lt;/span&gt;&lt;br style=&quot;font-size: 10px;&quot;&gt;&lt;/font&gt;&lt;a style=&quot;font-size: 10px;&quot; href=&quot;mailto:%email%&quot;&gt;Email&lt;/a&gt;&lt;/div&gt;" name="Christine Foster" position="Finance Manager" location="Main Office" email="finance@cyder.com.au" placeholders="1" id="tNbWX40E0FUAv1769Rd1-17">
          <mxCell style="label;whiteSpace=wrap;html=1;rounded=0;glass=0;treeFolding=1;treeMoving=1;spacingLeft=10;fontSize=10;" vertex="1" parent="tNbWX40E0FUAv1769Rd1-1">
            <mxGeometry x="925" y="310" width="150" height="70" as="geometry" />
          </mxCell>
        </UserObject>
        <UserObject label="%name%&lt;br style=&quot;font-size: 10px;&quot;&gt;&lt;i style=&quot;color: gray; font-size: 10px;&quot;&gt;%position%&lt;/i&gt;&lt;div style=&quot;font-size: 10px;&quot;&gt;&lt;font style=&quot;font-size: 10px;&quot; color=&quot;#808080&quot;&gt;&lt;span style=&quot;font-weight: normal; font-size: 10px;&quot;&gt;%location%&lt;/span&gt;&lt;br style=&quot;font-size: 10px;&quot;&gt;&lt;/font&gt;&lt;a style=&quot;font-size: 10px;&quot; href=&quot;mailto:%email%&quot;&gt;Email&lt;/a&gt;&lt;/div&gt;" name="Sam Sales" position="Sales Executive" location="Main Office" email="sales@cyder.com.au" placeholders="1" id="tNbWX40E0FUAv1769Rd1-18">
          <mxCell style="label;whiteSpace=wrap;html=1;rounded=0;glass=0;treeFolding=1;treeMoving=1;spacingLeft=10;fontSize=10;" vertex="1" parent="tNbWX40E0FUAv1769Rd1-1">
            <mxGeometry x="190" y="504" width="150" height="70" as="geometry" />
          </mxCell>
        </UserObject>
        <UserObject label="%name%&lt;br style=&quot;font-size: 10px;&quot;&gt;&lt;i style=&quot;color: gray; font-size: 10px;&quot;&gt;%position%&lt;/i&gt;&lt;div style=&quot;font-size: 10px;&quot;&gt;&lt;font style=&quot;font-size: 10px;&quot; color=&quot;#808080&quot;&gt;&lt;span style=&quot;font-weight: normal; font-size: 10px;&quot;&gt;%location%&lt;/span&gt;&lt;br style=&quot;font-size: 10px;&quot;&gt;&lt;/font&gt;&lt;a style=&quot;font-size: 10px;&quot; href=&quot;mailto:%email%&quot;&gt;Email&lt;/a&gt;&lt;/div&gt;" name="Lawrie Leader" position="Lead Generator" location="Main Office" email="lead@cyder.com.au" placeholders="1" id="tNbWX40E0FUAv1769Rd1-19">
          <mxCell style="label;whiteSpace=wrap;html=1;rounded=0;glass=0;treeFolding=1;treeMoving=1;spacingLeft=10;fontSize=10;" vertex="1" parent="tNbWX40E0FUAv1769Rd1-1">
            <mxGeometry x="190" y="414" width="150" height="70" as="geometry" />
          </mxCell>
        </UserObject>
        <mxCell id="tNbWX40E0FUAv1769Rd1-20" value="" style="edgeStyle=orthogonalEdgeStyle;rounded=0;orthogonalLoop=1;jettySize=auto;html=1;" edge="1" parent="tNbWX40E0FUAv1769Rd1-1" source="tNbWX40E0FUAv1769Rd1-22" target="tNbWX40E0FUAv1769Rd1-27">
          <mxGeometry relative="1" as="geometry" />
        </mxCell>
        <mxCell id="tNbWX40E0FUAv1769Rd1-21" style="edgeStyle=orthogonalEdgeStyle;rounded=0;orthogonalLoop=1;jettySize=auto;html=1;exitX=1;exitY=0.5;exitDx=0;exitDy=0;entryX=0;entryY=0.5;entryDx=0;entryDy=0;dashed=1;" edge="1" parent="tNbWX40E0FUAv1769Rd1-1" source="tNbWX40E0FUAv1769Rd1-22" target="tNbWX40E0FUAv1769Rd1-25">
          <mxGeometry relative="1" as="geometry">
            <Array as="points">
              <mxPoint x="550" y="345" />
              <mxPoint x="550" y="449" />
            </Array>
          </mxGeometry>
        </mxCell>
        <UserObject label="%name%&lt;br style=&quot;font-size: 10px;&quot;&gt;&lt;i style=&quot;color: gray; font-size: 10px;&quot;&gt;%position%&lt;/i&gt;&lt;div style=&quot;font-size: 10px;&quot;&gt;&lt;font style=&quot;font-size: 10px;&quot; color=&quot;#808080&quot;&gt;&lt;span style=&quot;font-weight: normal; font-size: 10px;&quot;&gt;%location%&lt;/span&gt;&lt;br style=&quot;font-size: 10px;&quot;&gt;&lt;/font&gt;&lt;a style=&quot;font-size: 10px;&quot; href=&quot;mailto:%email%&quot;&gt;Email&lt;/a&gt;&lt;/div&gt;" name="Peter Alison" position="Project Manager/Business Analyst" location="Main Office" email="projects@cyder.com.au" placeholders="1" id="tNbWX40E0FUAv1769Rd1-22">
          <mxCell style="label;whiteSpace=wrap;html=1;rounded=0;glass=0;treeFolding=1;treeMoving=1;spacingLeft=10;fontSize=10;" vertex="1" parent="tNbWX40E0FUAv1769Rd1-1">
            <mxGeometry x="372" y="310" width="150" height="70" as="geometry" />
          </mxCell>
        </UserObject>
        <UserObject label="%name%&lt;br style=&quot;font-size: 10px;&quot;&gt;&lt;i style=&quot;color: gray; font-size: 10px;&quot;&gt;%position%&lt;/i&gt;&lt;div style=&quot;font-size: 10px;&quot;&gt;&lt;font style=&quot;font-size: 10px;&quot; color=&quot;#808080&quot;&gt;&lt;span style=&quot;font-weight: normal; font-size: 10px;&quot;&gt;%location%&lt;/span&gt;&lt;br style=&quot;font-size: 10px;&quot;&gt;&lt;/font&gt;&lt;a style=&quot;font-size: 10px;&quot; href=&quot;mailto:%email%&quot;&gt;Email&lt;/a&gt;&lt;/div&gt;" name="Simone Oscar" position="1st Level Support" location="Main Office" email="support@cyder.com.au" placeholders="1" id="tNbWX40E0FUAv1769Rd1-23">
          <mxCell style="label;whiteSpace=wrap;html=1;rounded=0;glass=0;treeFolding=1;treeMoving=1;spacingLeft=10;fontSize=10;" vertex="1" parent="tNbWX40E0FUAv1769Rd1-1">
            <mxGeometry x="750" y="594" width="150" height="70" as="geometry" />
          </mxCell>
        </UserObject>
        <UserObject label="%name%&lt;br style=&quot;font-size: 10px;&quot;&gt;&lt;i style=&quot;color: gray; font-size: 10px;&quot;&gt;%position%&lt;/i&gt;&lt;div style=&quot;font-size: 10px;&quot;&gt;&lt;font style=&quot;font-size: 10px;&quot; color=&quot;#808080&quot;&gt;&lt;span style=&quot;font-weight: normal; font-size: 10px;&quot;&gt;%location%&lt;/span&gt;&lt;br style=&quot;font-size: 10px;&quot;&gt;&lt;/font&gt;&lt;a style=&quot;font-size: 10px;&quot; href=&quot;mailto:%email%&quot;&gt;Email&lt;/a&gt;&lt;/div&gt;" name="Tommy Too" position="1st Level Support" location="Main Office" email="tech@cyder.com.au" placeholders="1" id="tNbWX40E0FUAv1769Rd1-24">
          <mxCell style="label;whiteSpace=wrap;html=1;rounded=0;glass=0;treeFolding=1;treeMoving=1;spacingLeft=10;fontSize=10;" vertex="1" parent="tNbWX40E0FUAv1769Rd1-1">
            <mxGeometry x="750" y="504" width="150" height="70" as="geometry" />
          </mxCell>
        </UserObject>
        <UserObject label="%name%&lt;br style=&quot;font-size: 10px;&quot;&gt;&lt;i style=&quot;color: gray; font-size: 10px;&quot;&gt;%position%&lt;/i&gt;&lt;div style=&quot;font-size: 10px;&quot;&gt;&lt;font style=&quot;font-size: 10px;&quot; color=&quot;#808080&quot;&gt;&lt;span style=&quot;font-weight: normal; font-size: 10px;&quot;&gt;%location%&lt;/span&gt;&lt;br style=&quot;font-size: 10px;&quot;&gt;&lt;/font&gt;&lt;a style=&quot;font-size: 10px;&quot; href=&quot;mailto:%email%&quot;&gt;Email&lt;/a&gt;&lt;/div&gt;" name="Freddie Thomas" position="Functional Technician" location="Main Office" email="functional@cyder.com.au" placeholders="1" id="tNbWX40E0FUAv1769Rd1-25">
          <mxCell style="label;whiteSpace=wrap;html=1;rounded=0;glass=0;treeFolding=1;treeMoving=1;spacingLeft=10;fontSize=10;" vertex="1" parent="tNbWX40E0FUAv1769Rd1-1">
            <mxGeometry x="750" y="414" width="150" height="70" as="geometry" />
          </mxCell>
        </UserObject>
        <UserObject label="%name%&lt;br style=&quot;font-size: 10px;&quot;&gt;&lt;i style=&quot;color: gray; font-size: 10px;&quot;&gt;%position%&lt;/i&gt;&lt;div style=&quot;font-size: 10px;&quot;&gt;&lt;font style=&quot;font-size: 10px;&quot; color=&quot;#808080&quot;&gt;&lt;span style=&quot;font-weight: normal; font-size: 10px;&quot;&gt;%location%&lt;/span&gt;&lt;br style=&quot;font-size: 10px;&quot;&gt;&lt;/font&gt;&lt;a style=&quot;font-size: 10px;&quot; href=&quot;mailto:%email%&quot;&gt;Email&lt;/a&gt;&lt;/div&gt;" name="Francis Kelly" position="Bookkeeper" location="Main Office" email="accounts@cyder.com.au" placeholders="1" id="tNbWX40E0FUAv1769Rd1-26">
          <mxCell style="label;whiteSpace=wrap;html=1;rounded=0;glass=0;treeFolding=1;treeMoving=1;spacingLeft=10;fontSize=10;" vertex="1" parent="tNbWX40E0FUAv1769Rd1-1">
            <mxGeometry x="925" y="414" width="150" height="70" as="geometry" />
          </mxCell>
        </UserObject>
        <UserObject label="%name%&lt;br style=&quot;font-size: 10px;&quot;&gt;&lt;i style=&quot;color: gray; font-size: 10px;&quot;&gt;%position%&lt;/i&gt;&lt;div style=&quot;font-size: 10px;&quot;&gt;&lt;font style=&quot;font-size: 10px;&quot; color=&quot;#808080&quot;&gt;&lt;span style=&quot;font-weight: normal; font-size: 10px;&quot;&gt;%location%&lt;/span&gt;&lt;br style=&quot;font-size: 10px;&quot;&gt;&lt;/font&gt;&lt;a style=&quot;font-size: 10px;&quot; href=&quot;mailto:%email%&quot;&gt;Email&lt;/a&gt;&lt;/div&gt;" name="Barry Andrews" position="Business Analyst" location="Main Office" email="analyst@cyder.com.au" placeholders="1" id="tNbWX40E0FUAv1769Rd1-27">
          <mxCell style="label;whiteSpace=wrap;html=1;rounded=0;glass=0;treeFolding=1;treeMoving=1;spacingLeft=10;fontSize=10;" vertex="1" parent="tNbWX40E0FUAv1769Rd1-1">
            <mxGeometry x="372" y="414" width="150" height="70" as="geometry" />
          </mxCell>
        </UserObject>
      </root>
    </mxGraphModel>
  </diagram>
</mxfile>
